<svg width="158" height="41" viewBox="0 0 158 41" fill="none" xmlns="http://www.w3.org/2000/svg">
<path d="M0.833386 1.66678C0.723567 1.66711 0.614893 1.6891 0.513592 1.73151C0.41229 1.77391 0.320353 1.83589 0.24305 1.9139C0.165746 1.9919 0.104596 2.08439 0.0631038 2.18607C0.0216116 2.28775 0.000593203 2.39661 0.00125326 2.50643V37.4986C-0.00496178 37.6119 0.0119853 37.7253 0.0510592 37.8318C0.0901331 37.9383 0.150513 38.0357 0.228511 38.1181C0.306509 38.2005 0.400486 38.2661 0.504701 38.311C0.608917 38.3558 0.721182 38.379 0.834639 38.379C0.948095 38.379 1.06036 38.3558 1.16458 38.311C1.26879 38.2661 1.36277 38.2005 1.44077 38.1181C1.51876 38.0357 1.57914 37.9383 1.61822 37.8318C1.65729 37.7253 1.67424 37.6119 1.66802 37.4986V2.50643C1.66869 2.3964 1.64758 2.28733 1.60594 2.18549C1.56429 2.08365 1.50291 1.99104 1.42534 1.91301C1.34777 1.83497 1.25554 1.77305 1.15395 1.73079C1.05236 1.68853 0.943415 1.66678 0.833386 1.66678Z" fill="white"/>
<path d="M7.50044 1.66678C7.39041 1.66678 7.28147 1.68853 7.17988 1.73079C7.07829 1.77305 6.98605 1.83497 6.90848 1.91301C6.83092 1.99104 6.76954 2.08365 6.72789 2.18549C6.68624 2.28733 6.66514 2.3964 6.6658 2.50643V37.4986C6.65959 37.6119 6.67654 37.7253 6.71561 37.8318C6.75468 37.9383 6.81506 38.0357 6.89306 38.1181C6.97106 38.2005 7.06504 38.2661 7.16925 38.311C7.27347 38.3558 7.38573 38.379 7.49919 38.379C7.61265 38.379 7.72491 38.3558 7.82913 38.311C7.93334 38.2661 8.02732 38.2005 8.10532 38.1181C8.18331 38.0357 8.2437 37.9383 8.28277 37.8318C8.32184 37.7253 8.33879 37.6119 8.33258 37.4986V2.50643C8.33324 2.39661 8.31222 2.28775 8.27072 2.18607C8.22923 2.08439 8.16808 1.9919 8.09078 1.9139C8.01347 1.83589 7.92154 1.77391 7.82024 1.73151C7.71894 1.6891 7.61026 1.66711 7.50044 1.66678Z" fill="white"/>
<path d="M10.834 6.66708C10.6127 6.66708 10.4004 6.75502 10.2438 6.91154C10.0873 7.06807 9.99939 7.28036 9.99939 7.50172V25.8337C10.0111 26.0468 10.104 26.2474 10.259 26.3941C10.414 26.5408 10.6193 26.6226 10.8328 26.6226C11.0462 26.6226 11.2516 26.5408 11.4066 26.3941C11.5616 26.2474 11.6545 26.0468 11.6662 25.8337V7.50172C11.6662 7.2808 11.5786 7.06888 11.4226 6.91243C11.2666 6.75597 11.055 6.66775 10.834 6.66708Z" fill="white"/>
<path d="M17.4986 13.3342C17.2779 13.3342 17.0663 13.4218 16.9102 13.5779C16.7541 13.734 16.6665 13.9456 16.6665 14.1663V32.4983C16.6603 32.6116 16.6772 32.7249 16.7163 32.8314C16.7554 32.938 16.8157 33.0354 16.8937 33.1178C16.9717 33.2002 17.0657 33.2658 17.1699 33.3107C17.2741 33.3555 17.3864 33.3786 17.4999 33.3786C17.6133 33.3786 17.7256 33.3555 17.8298 33.3107C17.934 33.2658 18.028 33.2002 18.106 33.1178C18.184 33.0354 18.2444 32.938 18.2834 32.8314C18.3225 32.7249 18.3395 32.6116 18.3332 32.4983V14.1663C18.3332 14.0568 18.3116 13.9484 18.2697 13.8473C18.2277 13.7462 18.1662 13.6543 18.0886 13.577C18.0111 13.4997 17.9191 13.4385 17.8178 13.3968C17.7166 13.3551 17.6081 13.3338 17.4986 13.3342Z" fill="white"/>
<path d="M14.1676 10.0006C13.9466 10.0006 13.7347 10.0882 13.5783 10.2442C13.4218 10.4002 13.3336 10.6118 13.3329 10.8328V29.1647C13.3267 29.278 13.3437 29.3914 13.3827 29.4979C13.4218 29.6044 13.4822 29.7019 13.5602 29.7843C13.6382 29.8666 13.7322 29.9323 13.8364 29.9771C13.9406 30.022 14.0528 30.0451 14.1663 30.0451C14.2798 30.0451 14.392 30.022 14.4962 29.9771C14.6005 29.9323 14.6944 29.8666 14.7724 29.7843C14.8504 29.7019 14.9108 29.6044 14.9499 29.4979C14.989 29.3914 15.0059 29.278 14.9997 29.1647V10.8328C14.9997 10.6121 14.912 10.4004 14.756 10.2444C14.5999 10.0883 14.3883 10.0006 14.1676 10.0006Z" fill="white"/>
<path d="M20.8321 1.66678C20.7223 1.66711 20.6136 1.6891 20.5123 1.73151C20.411 1.77391 20.3191 1.83589 20.2418 1.9139C20.1645 1.9919 20.1033 2.08439 20.0618 2.18607C20.0203 2.28775 19.9993 2.39661 20 2.50643V37.4986C19.9938 37.6119 20.0107 37.7253 20.0498 37.8318C20.0889 37.9383 20.1492 38.0357 20.2272 38.1181C20.3052 38.2005 20.3992 38.2661 20.5034 38.311C20.6076 38.3558 20.7199 38.379 20.8334 38.379C20.9468 38.379 21.0591 38.3558 21.1633 38.311C21.2675 38.2661 21.3615 38.2005 21.4395 38.1181C21.5175 38.0357 21.5779 37.9383 21.6169 37.8318C21.656 37.7253 21.673 37.6119 21.6667 37.4986V2.50643C21.6674 2.3964 21.6463 2.28733 21.6047 2.18549C21.563 2.08365 21.5016 1.99104 21.4241 1.91301C21.3465 1.83497 21.2543 1.77305 21.1527 1.73079C21.0511 1.68853 20.9421 1.66678 20.8321 1.66678Z" fill="white"/>
<path d="M27.4992 1.66678C27.3894 1.66711 27.2807 1.6891 27.1794 1.73151C27.0781 1.77391 26.9862 1.83589 26.9089 1.9139C26.8316 1.9919 26.7704 2.08439 26.7289 2.18607C26.6874 2.28775 26.6664 2.39661 26.6671 2.50643V37.4986C26.6609 37.6119 26.6778 37.7253 26.7169 37.8318C26.756 37.9383 26.8163 38.0357 26.8943 38.1181C26.9723 38.2005 27.0663 38.2661 27.1705 38.311C27.2747 38.3558 27.387 38.379 27.5005 38.379C27.6139 38.379 27.7262 38.3558 27.8304 38.311C27.9346 38.2661 28.0286 38.2005 28.1066 38.1181C28.1846 38.0357 28.245 37.9383 28.2841 37.8318C28.3231 37.7253 28.3401 37.6119 28.3339 37.4986V2.50643C28.3345 2.3964 28.3134 2.28733 28.2718 2.18549C28.2301 2.08365 28.1687 1.99104 28.0912 1.91301C28.0136 1.83497 27.9214 1.77305 27.8198 1.73079C27.7182 1.68853 27.6092 1.66678 27.4992 1.66678Z" fill="white"/>
<path d="M24.1657 0C23.945 0 23.7333 0.0876708 23.5773 0.243726C23.4212 0.399781 23.3335 0.611437 23.3335 0.832132V39.1654C23.3273 39.2786 23.3443 39.392 23.3833 39.4985C23.4224 39.605 23.4828 39.7025 23.5608 39.7849C23.6388 39.8673 23.7328 39.9329 23.837 39.9777C23.9412 40.0226 24.0535 40.0457 24.1669 40.0457C24.2804 40.0457 24.3926 40.0226 24.4969 39.9777C24.6011 39.9329 24.695 39.8673 24.773 39.7849C24.851 39.7025 24.9114 39.605 24.9505 39.4985C24.9896 39.392 25.0065 39.2786 25.0003 39.1654V0.832132C24.9996 0.611207 24.9114 0.399557 24.755 0.243573C24.5985 0.0875898 24.3866 -9.96154e-07 24.1657 0Z" fill="white"/>
<path d="M4.16695 0C3.94602 -9.96154e-07 3.73411 0.0875898 3.57765 0.243573C3.4212 0.399557 3.33297 0.611207 3.33231 0.832132V39.1654C3.32609 39.2786 3.34304 39.392 3.38211 39.4985C3.42119 39.605 3.48157 39.7025 3.55957 39.7849C3.63756 39.8673 3.73154 39.9329 3.83576 39.9777C3.93997 40.0226 4.05224 40.0457 4.16569 40.0457C4.27915 40.0457 4.39142 40.0226 4.49563 39.9777C4.59985 39.9329 4.69382 39.8673 4.77182 39.7849C4.84982 39.7025 4.9102 39.605 4.94927 39.4985C4.98835 39.392 5.00529 39.2786 4.99908 39.1654V0.832132C4.99908 0.611437 4.91141 0.399781 4.75535 0.243726C4.5993 0.0876708 4.38764 0 4.16695 0Z" fill="white"/>
<path d="M54.3136 10.1166V30.0229H50.212L42.214 16.6791V30.0229H38.1124V10.1166H42.214L50.2257 23.474V10.1166H54.3136ZM57.007 22.7768V22.4897C57.007 21.405 57.1619 20.407 57.4718 19.4955C57.7817 18.5749 58.2329 17.7774 58.8253 17.1029C59.4178 16.4285 60.1469 15.9044 61.0128 15.5307C61.8787 15.1479 62.8722 14.9565 63.9933 14.9565C65.1144 14.9565 66.1124 15.1479 66.9874 15.5307C67.8624 15.9044 68.5962 16.4285 69.1886 17.1029C69.7902 17.7774 70.2459 18.5749 70.5558 19.4955C70.8657 20.407 71.0206 21.405 71.0206 22.4897V22.7768C71.0206 23.8523 70.8657 24.8503 70.5558 25.7709C70.2459 26.6824 69.7902 27.4799 69.1886 28.1635C68.5962 28.838 67.867 29.3621 67.0011 29.7357C66.1352 30.1094 65.1417 30.2963 64.0206 30.2963C62.8995 30.2963 61.9015 30.1094 61.0265 29.7357C60.1606 29.3621 59.4269 28.838 58.8253 28.1635C58.2329 27.4799 57.7817 26.6824 57.4718 25.7709C57.1619 24.8503 57.007 23.8523 57.007 22.7768ZM60.9445 22.4897V22.7768C60.9445 23.3966 60.9991 23.9753 61.1085 24.5131C61.2179 25.0509 61.3911 25.5248 61.6281 25.935C61.8741 26.336 62.1932 26.6505 62.5851 26.8783C62.977 27.1062 63.4555 27.2201 64.0206 27.2201C64.5675 27.2201 65.0369 27.1062 65.4288 26.8783C65.8208 26.6505 66.1352 26.336 66.3722 25.935C66.6092 25.5248 66.7823 25.0509 66.8917 24.5131C67.0102 23.9753 67.0695 23.3966 67.0695 22.7768V22.4897C67.0695 21.8881 67.0102 21.323 66.8917 20.7943C66.7823 20.2566 66.6046 19.7826 66.3585 19.3725C66.1215 18.9532 65.8071 18.6251 65.4152 18.3881C65.0232 18.1511 64.5493 18.0326 63.9933 18.0326C63.4373 18.0326 62.9633 18.1511 62.5714 18.3881C62.1886 18.6251 61.8741 18.9532 61.6281 19.3725C61.3911 19.7826 61.2179 20.2566 61.1085 20.7943C60.9991 21.323 60.9445 21.8881 60.9445 22.4897ZM77.3781 18.4565V30.0229H73.4406V15.2299H77.1456L77.3781 18.4565ZM81.8351 15.1342L81.7667 18.7846C81.5753 18.7572 81.3429 18.7344 81.0695 18.7162C80.8051 18.6889 80.5636 18.6752 80.3448 18.6752C79.7889 18.6752 79.3058 18.7481 78.8956 18.894C78.4946 19.0307 78.1573 19.2357 77.8839 19.5092C77.6196 19.7826 77.4191 20.1153 77.2823 20.5072C77.1547 20.8992 77.0818 21.3458 77.0636 21.8471L76.2706 21.601C76.2706 20.644 76.3663 19.7644 76.5577 18.9623C76.7491 18.1511 77.0271 17.4447 77.3917 16.8432C77.7654 16.2416 78.2212 15.7768 78.7589 15.4486C79.2967 15.1205 79.9119 14.9565 80.6046 14.9565C80.8234 14.9565 81.0467 14.9747 81.2745 15.0111C81.5024 15.0385 81.6892 15.0795 81.8351 15.1342ZM91.6241 15.2299V18.019H83.0109V15.2299H91.6241ZM85.1437 11.5795H89.0812V25.5658C89.0812 25.9942 89.1359 26.3223 89.2452 26.5502C89.3637 26.7781 89.5369 26.9376 89.7648 27.0287C89.9926 27.1107 90.2797 27.1518 90.6261 27.1518C90.8722 27.1518 91.0909 27.1426 91.2823 27.1244C91.4829 27.0971 91.6515 27.0697 91.7882 27.0424L91.8019 29.9408C91.4646 30.0502 91.1001 30.1368 90.7081 30.2006C90.3162 30.2644 89.8833 30.2963 89.4093 30.2963C88.5434 30.2963 87.7869 30.155 87.1398 29.8725C86.5017 29.5808 86.0096 29.116 85.6632 28.4779C85.3169 27.8399 85.1437 27.0014 85.1437 25.9623V11.5795Z" fill="white"/>
<path d="M101.851 26.6869V20.0971C101.851 19.6231 101.773 19.2175 101.618 18.8803C101.463 18.5339 101.222 18.265 100.894 18.0736C100.575 17.8822 100.16 17.7865 99.6495 17.7865C99.212 17.7865 98.8338 17.864 98.5148 18.019C98.1958 18.1648 97.9497 18.379 97.7765 18.6615C97.6033 18.935 97.5167 19.2585 97.5167 19.6322H93.5792C93.5792 19.0033 93.7251 18.4063 94.0167 17.8412C94.3084 17.2761 94.7322 16.7794 95.2882 16.351C95.8442 15.9135 96.505 15.5717 97.2706 15.3256C98.0454 15.0795 98.9113 14.9565 99.8683 14.9565C101.017 14.9565 102.038 15.1479 102.931 15.5307C103.824 15.9135 104.526 16.4877 105.036 17.2533C105.556 18.019 105.816 18.976 105.816 20.1244V26.4545C105.816 27.2657 105.866 27.9311 105.966 28.4506C106.066 28.961 106.212 29.4076 106.403 29.7904V30.0229H102.425C102.234 29.6218 102.088 29.1205 101.987 28.519C101.896 27.9083 101.851 27.2976 101.851 26.6869ZM102.37 21.0131L102.398 23.2416H100.196C99.6769 23.2416 99.2257 23.3009 98.8429 23.4193C98.4601 23.5378 98.1456 23.7065 97.8995 23.9252C97.6534 24.1348 97.4712 24.3809 97.3527 24.6635C97.2433 24.946 97.1886 25.2559 97.1886 25.5932C97.1886 25.9304 97.2661 26.2357 97.421 26.5092C97.576 26.7735 97.7993 26.9831 98.0909 27.1381C98.3826 27.2839 98.7244 27.3568 99.1163 27.3568C99.7088 27.3568 100.224 27.2384 100.661 27.0014C101.099 26.7644 101.436 26.4727 101.673 26.1264C101.919 25.78 102.047 25.4519 102.056 25.142L103.095 26.81C102.949 27.1837 102.748 27.571 102.493 27.9721C102.247 28.3731 101.933 28.7514 101.55 29.1068C101.167 29.4532 100.707 29.7403 100.169 29.9682C99.6313 30.1869 98.9933 30.2963 98.255 30.2963C97.3162 30.2963 96.464 30.1094 95.6984 29.7357C94.9419 29.3529 94.3403 28.8288 93.8937 28.1635C93.4562 27.489 93.2374 26.7234 93.2374 25.8666C93.2374 25.0919 93.3833 24.4037 93.6749 23.8022C93.9666 23.2006 94.395 22.6947 94.9601 22.2846C95.5343 21.8653 96.2498 21.5509 97.1066 21.3412C97.9633 21.1225 98.9568 21.0131 100.087 21.0131H102.37ZM113.075 26.1947L116.151 15.2299H118.653L117.847 19.5365L114.771 30.0229H112.679L113.075 26.1947ZM111.517 15.2299L113.718 26.1811L113.923 30.0229H111.462L107.716 15.2299H111.517ZM121.47 26.0033L123.616 15.2299H127.431L123.685 30.0229H121.237L121.47 26.0033ZM118.995 15.2299L122.058 26.1127L122.482 30.0229H120.376L117.3 19.5502L116.521 15.2299H118.995ZM137.398 26.6869V20.0971C137.398 19.6231 137.32 19.2175 137.165 18.8803C137.01 18.5339 136.769 18.265 136.441 18.0736C136.122 17.8822 135.707 17.7865 135.196 17.7865C134.759 17.7865 134.381 17.864 134.062 18.019C133.743 18.1648 133.497 18.379 133.323 18.6615C133.15 18.935 133.064 19.2585 133.064 19.6322H129.126C129.126 19.0033 129.272 18.4063 129.564 17.8412C129.855 17.2761 130.279 16.7794 130.835 16.351C131.391 15.9135 132.052 15.5717 132.818 15.3256C133.592 15.0795 134.458 14.9565 135.415 14.9565C136.564 14.9565 137.584 15.1479 138.478 15.5307C139.371 15.9135 140.073 16.4877 140.583 17.2533C141.103 18.019 141.362 18.976 141.362 20.1244V26.4545C141.362 27.2657 141.413 27.9311 141.513 28.4506C141.613 28.961 141.759 29.4076 141.95 29.7904V30.0229H137.972C137.78 29.6218 137.635 29.1205 137.534 28.519C137.443 27.9083 137.398 27.2976 137.398 26.6869ZM137.917 21.0131L137.944 23.2416H135.743C135.224 23.2416 134.773 23.3009 134.39 23.4193C134.007 23.5378 133.693 23.7065 133.446 23.9252C133.2 24.1348 133.018 24.3809 132.9 24.6635C132.79 24.946 132.735 25.2559 132.735 25.5932C132.735 25.9304 132.813 26.2357 132.968 26.5092C133.123 26.7735 133.346 26.9831 133.638 27.1381C133.929 27.2839 134.271 27.3568 134.663 27.3568C135.256 27.3568 135.771 27.2384 136.208 27.0014C136.646 26.7644 136.983 26.4727 137.22 26.1264C137.466 25.78 137.594 25.4519 137.603 25.142L138.642 26.81C138.496 27.1837 138.295 27.571 138.04 27.9721C137.794 28.3731 137.48 28.7514 137.097 29.1068C136.714 29.4532 136.254 29.7403 135.716 29.9682C135.178 30.1869 134.54 30.2963 133.802 30.2963C132.863 30.2963 132.011 30.1094 131.245 29.7357C130.489 29.3529 129.887 28.8288 129.441 28.1635C129.003 27.489 128.784 26.7234 128.784 25.8666C128.784 25.0919 128.93 24.4037 129.222 23.8022C129.513 23.2006 129.942 22.6947 130.507 22.2846C131.081 21.8653 131.797 21.5509 132.653 21.3412C133.51 21.1225 134.504 21.0131 135.634 21.0131H137.917ZM148.568 28.3549L152.491 15.2299H156.716L150.769 32.2514C150.641 32.6251 150.468 33.0261 150.249 33.4545C150.04 33.8829 149.752 34.2885 149.388 34.6713C149.032 35.0632 148.581 35.3822 148.034 35.6283C147.497 35.8744 146.836 35.9975 146.052 35.9975C145.678 35.9975 145.373 35.9747 145.136 35.9291C144.899 35.8835 144.616 35.8197 144.288 35.7377V32.8529C144.388 32.8529 144.493 32.8529 144.603 32.8529C144.712 32.8621 144.817 32.8666 144.917 32.8666C145.437 32.8666 145.86 32.8074 146.189 32.6889C146.517 32.5704 146.781 32.3881 146.982 32.142C147.182 31.905 147.342 31.5951 147.46 31.2123L148.568 28.3549ZM146.927 15.2299L150.14 25.9486L150.7 30.1186L148.021 30.4057L142.702 15.2299H146.927Z" fill="#39FF3E"/>
</svg>
