<svg width="29" height="41" viewBox="0 0 29 41" fill="none" xmlns="http://www.w3.org/2000/svg">
<path d="M0.833386 1.66675C0.723567 1.66708 0.614893 1.68907 0.513592 1.73148C0.41229 1.77388 0.320353 1.83586 0.24305 1.91386C0.165746 1.99187 0.104596 2.08436 0.0631038 2.18604C0.0216116 2.28772 0.000593203 2.39658 0.00125326 2.5064V37.4986C-0.00496178 37.6119 0.0119853 37.7252 0.0510592 37.8317C0.0901331 37.9383 0.150513 38.0357 0.228511 38.1181C0.306509 38.2005 0.400486 38.2661 0.504701 38.3109C0.608917 38.3558 0.721182 38.3789 0.834639 38.3789C0.948095 38.3789 1.06036 38.3558 1.16458 38.3109C1.26879 38.2661 1.36277 38.2005 1.44077 38.1181C1.51876 38.0357 1.57914 37.9383 1.61822 37.8317C1.65729 37.7252 1.67424 37.6119 1.66802 37.4986V2.5064C1.66869 2.39637 1.64758 2.2873 1.60594 2.18546C1.56429 2.08362 1.50291 1.99101 1.42534 1.91298C1.34777 1.83494 1.25554 1.77301 1.15395 1.73076C1.05236 1.6885 0.943415 1.66675 0.833386 1.66675Z" fill="#009639"/>
<path d="M7.50044 1.66675C7.39041 1.66675 7.28147 1.6885 7.17988 1.73076C7.07829 1.77301 6.98605 1.83494 6.90848 1.91298C6.83092 1.99101 6.76954 2.08362 6.72789 2.18546C6.68624 2.2873 6.66514 2.39637 6.6658 2.5064V37.4986C6.65959 37.6119 6.67654 37.7252 6.71561 37.8317C6.75468 37.9383 6.81506 38.0357 6.89306 38.1181C6.97106 38.2005 7.06504 38.2661 7.16925 38.3109C7.27347 38.3558 7.38573 38.3789 7.49919 38.3789C7.61265 38.3789 7.72491 38.3558 7.82913 38.3109C7.93334 38.2661 8.02732 38.2005 8.10532 38.1181C8.18331 38.0357 8.2437 37.9383 8.28277 37.8317C8.32184 37.7252 8.33879 37.6119 8.33258 37.4986V2.5064C8.33324 2.39658 8.31222 2.28772 8.27072 2.18604C8.22923 2.08436 8.16808 1.99187 8.09078 1.91386C8.01347 1.83586 7.92154 1.77388 7.82024 1.73148C7.71894 1.68907 7.61026 1.66708 7.50044 1.66675Z" fill="#009639"/>
<path d="M10.834 6.66699C10.6127 6.66699 10.4004 6.75493 10.2438 6.91145C10.0873 7.06798 9.99939 7.28027 9.99939 7.50163V25.8336C10.0111 26.0467 10.104 26.2473 10.259 26.394C10.414 26.5408 10.6193 26.6225 10.8328 26.6225C11.0462 26.6225 11.2516 26.5408 11.4066 26.394C11.5616 26.2473 11.6545 26.0467 11.6662 25.8336V7.50163C11.6662 7.2807 11.5786 7.06879 11.4226 6.91234C11.2666 6.75588 11.055 6.66766 10.834 6.66699Z" fill="#009639"/>
<path d="M17.4986 13.3342C17.2779 13.3342 17.0663 13.4219 16.9102 13.578C16.7541 13.734 16.6665 13.9457 16.6665 14.1664V32.4983C16.6603 32.6116 16.6772 32.725 16.7163 32.8315C16.7554 32.938 16.8157 33.0355 16.8937 33.1178C16.9717 33.2002 17.0657 33.2659 17.1699 33.3107C17.2741 33.3556 17.3864 33.3787 17.4999 33.3787C17.6133 33.3787 17.7256 33.3556 17.8298 33.3107C17.934 33.2659 18.028 33.2002 18.106 33.1178C18.184 33.0355 18.2444 32.938 18.2834 32.8315C18.3225 32.725 18.3395 32.6116 18.3332 32.4983V14.1664C18.3332 14.0569 18.3116 13.9485 18.2697 13.8473C18.2277 13.7462 18.1662 13.6544 18.0886 13.5771C18.0111 13.4998 17.9191 13.4385 17.8178 13.3969C17.7166 13.3552 17.6081 13.3339 17.4986 13.3342Z" fill="#009639"/>
<path d="M14.1676 10.0007C13.9466 10.0007 13.7347 10.0883 13.5783 10.2443C13.4218 10.4003 13.3336 10.6119 13.3329 10.8329V29.1648C13.3267 29.2781 13.3437 29.3915 13.3827 29.498C13.4218 29.6045 13.4822 29.702 13.5602 29.7843C13.6382 29.8667 13.7322 29.9324 13.8364 29.9772C13.9406 30.0221 14.0528 30.0452 14.1663 30.0452C14.2798 30.0452 14.392 30.0221 14.4962 29.9772C14.6005 29.9324 14.6944 29.8667 14.7724 29.7843C14.8504 29.702 14.9108 29.6045 14.9499 29.498C14.989 29.3915 15.0059 29.2781 14.9997 29.1648V10.8329C14.9997 10.6122 14.912 10.4005 14.756 10.2445C14.5999 10.0884 14.3883 10.0007 14.1676 10.0007Z" fill="#009639"/>
<path d="M20.8321 1.66675C20.7223 1.66708 20.6136 1.68907 20.5123 1.73148C20.411 1.77388 20.3191 1.83586 20.2418 1.91386C20.1645 1.99187 20.1033 2.08436 20.0618 2.18604C20.0203 2.28772 19.9993 2.39658 20 2.5064V37.4986C19.9938 37.6119 20.0107 37.7252 20.0498 37.8317C20.0889 37.9383 20.1492 38.0357 20.2272 38.1181C20.3052 38.2005 20.3992 38.2661 20.5034 38.3109C20.6076 38.3558 20.7199 38.3789 20.8334 38.3789C20.9468 38.3789 21.0591 38.3558 21.1633 38.3109C21.2675 38.2661 21.3615 38.2005 21.4395 38.1181C21.5175 38.0357 21.5779 37.9383 21.6169 37.8317C21.656 37.7252 21.673 37.6119 21.6667 37.4986V2.5064C21.6674 2.39637 21.6463 2.2873 21.6047 2.18546C21.563 2.08362 21.5016 1.99101 21.4241 1.91298C21.3465 1.83494 21.2543 1.77301 21.1527 1.73076C21.0511 1.6885 20.9421 1.66675 20.8321 1.66675Z" fill="#009639"/>
<path d="M27.4992 1.66675C27.3894 1.66708 27.2807 1.68907 27.1794 1.73148C27.0781 1.77388 26.9862 1.83586 26.9089 1.91386C26.8316 1.99187 26.7704 2.08436 26.7289 2.18604C26.6874 2.28772 26.6664 2.39658 26.6671 2.5064V37.4986C26.6609 37.6119 26.6778 37.7252 26.7169 37.8317C26.756 37.9383 26.8163 38.0357 26.8943 38.1181C26.9723 38.2005 27.0663 38.2661 27.1705 38.3109C27.2747 38.3558 27.387 38.3789 27.5005 38.3789C27.6139 38.3789 27.7262 38.3558 27.8304 38.3109C27.9346 38.2661 28.0286 38.2005 28.1066 38.1181C28.1846 38.0357 28.245 37.9383 28.2841 37.8317C28.3231 37.7252 28.3401 37.6119 28.3339 37.4986V2.5064C28.3345 2.39637 28.3134 2.2873 28.2718 2.18546C28.2301 2.08362 28.1687 1.99101 28.0912 1.91298C28.0136 1.83494 27.9214 1.77301 27.8198 1.73076C27.7182 1.6885 27.6092 1.66675 27.4992 1.66675Z" fill="#009639"/>
<path d="M24.1657 0C23.945 0 23.7333 0.0876708 23.5773 0.243726C23.4212 0.399781 23.3335 0.611437 23.3335 0.832132V39.1654C23.3273 39.2786 23.3443 39.392 23.3833 39.4985C23.4224 39.605 23.4828 39.7025 23.5608 39.7849C23.6388 39.8673 23.7328 39.9329 23.837 39.9777C23.9412 40.0226 24.0535 40.0457 24.1669 40.0457C24.2804 40.0457 24.3926 40.0226 24.4969 39.9777C24.6011 39.9329 24.695 39.8673 24.773 39.7849C24.851 39.7025 24.9114 39.605 24.9505 39.4985C24.9896 39.392 25.0065 39.2786 25.0003 39.1654V0.832132C24.9996 0.611207 24.9114 0.399557 24.755 0.243573C24.5985 0.0875898 24.3866 -9.96154e-07 24.1657 0Z" fill="#009639"/>
<path d="M4.16695 0C3.94602 -9.96154e-07 3.73411 0.0875898 3.57765 0.243573C3.4212 0.399557 3.33297 0.611207 3.33231 0.832132V39.1654C3.32609 39.2786 3.34304 39.392 3.38211 39.4985C3.42119 39.605 3.48157 39.7025 3.55957 39.7849C3.63756 39.8673 3.73154 39.9329 3.83576 39.9777C3.93997 40.0226 4.05224 40.0457 4.16569 40.0457C4.27915 40.0457 4.39142 40.0226 4.49563 39.9777C4.59985 39.9329 4.69382 39.8673 4.77182 39.7849C4.84982 39.7025 4.9102 39.605 4.94927 39.4985C4.98835 39.392 5.00529 39.2786 4.99908 39.1654V0.832132C4.99908 0.611437 4.91141 0.399781 4.75535 0.243726C4.5993 0.0876708 4.38764 0 4.16695 0Z" fill="#009639"/>
</svg>
