<svg width="29" height="41" viewBox="0 0 29 41" fill="none" xmlns="http://www.w3.org/2000/svg">
<path d="M0.833386 1.66677C0.723567 1.6671 0.614893 1.6891 0.513592 1.7315C0.41229 1.77391 0.320353 1.83589 0.24305 1.91389C0.165746 1.99189 0.104596 2.08438 0.0631038 2.18606C0.0216116 2.28774 0.000593203 2.39661 0.00125326 2.50642V37.4986C-0.00496178 37.6119 0.0119853 37.7252 0.0510592 37.8318C0.0901331 37.9383 0.150513 38.0357 0.228511 38.1181C0.306509 38.2005 0.400486 38.2661 0.504701 38.311C0.608917 38.3558 0.721182 38.379 0.834639 38.379C0.948095 38.379 1.06036 38.3558 1.16458 38.311C1.26879 38.2661 1.36277 38.2005 1.44077 38.1181C1.51876 38.0357 1.57914 37.9383 1.61822 37.8318C1.65729 37.7252 1.67424 37.6119 1.66802 37.4986V2.50642C1.66869 2.3964 1.64758 2.28732 1.60594 2.18548C1.56429 2.08364 1.50291 1.99104 1.42534 1.913C1.34777 1.83497 1.25554 1.77304 1.15395 1.73078C1.05236 1.68852 0.943415 1.66677 0.833386 1.66677Z" fill="white"/>
<path d="M7.50044 1.66677C7.39041 1.66677 7.28147 1.68852 7.17988 1.73078C7.07829 1.77304 6.98605 1.83497 6.90848 1.913C6.83092 1.99104 6.76954 2.08364 6.72789 2.18548C6.68624 2.28732 6.66514 2.3964 6.6658 2.50642V37.4986C6.65959 37.6119 6.67654 37.7252 6.71561 37.8318C6.75468 37.9383 6.81506 38.0357 6.89306 38.1181C6.97106 38.2005 7.06504 38.2661 7.16925 38.311C7.27347 38.3558 7.38573 38.379 7.49919 38.379C7.61265 38.379 7.72491 38.3558 7.82913 38.311C7.93334 38.2661 8.02732 38.2005 8.10532 38.1181C8.18331 38.0357 8.2437 37.9383 8.28277 37.8318C8.32184 37.7252 8.33879 37.6119 8.33258 37.4986V2.50642C8.33324 2.39661 8.31222 2.28774 8.27072 2.18606C8.22923 2.08438 8.16808 1.99189 8.09078 1.91389C8.01347 1.83589 7.92154 1.77391 7.82024 1.7315C7.71894 1.6891 7.61026 1.6671 7.50044 1.66677Z" fill="white"/>
<path d="M10.834 6.66708C10.6127 6.66708 10.4004 6.75502 10.2438 6.91154C10.0873 7.06807 9.99939 7.28036 9.99939 7.50172V25.8337C10.0111 26.0468 10.104 26.2474 10.259 26.3941C10.414 26.5408 10.6193 26.6226 10.8328 26.6226C11.0462 26.6226 11.2516 26.5408 11.4066 26.3941C11.5616 26.2474 11.6545 26.0468 11.6662 25.8337V7.50172C11.6662 7.2808 11.5786 7.06888 11.4226 6.91243C11.2666 6.75598 11.055 6.66775 10.834 6.66708Z" fill="white"/>
<path d="M17.4985 13.3342C17.2779 13.3342 17.0662 13.4218 16.9101 13.5779C16.7541 13.734 16.6664 13.9456 16.6664 14.1663V32.4983C16.6602 32.6116 16.6771 32.7249 16.7162 32.8314C16.7553 32.938 16.8157 33.0354 16.8937 33.1178C16.9717 33.2002 17.0656 33.2658 17.1699 33.3107C17.2741 33.3555 17.3863 33.3786 17.4998 33.3786C17.6133 33.3786 17.7255 33.3555 17.8297 33.3107C17.934 33.2658 18.0279 33.2002 18.1059 33.1178C18.1839 33.0354 18.2443 32.938 18.2834 32.8314C18.3225 32.7249 18.3394 32.6116 18.3332 32.4983V14.1663C18.3332 14.0568 18.3116 13.9484 18.2696 13.8473C18.2276 13.7462 18.1661 13.6543 18.0886 13.577C18.011 13.4997 17.919 13.4385 17.8178 13.3968C17.7165 13.3551 17.608 13.3338 17.4985 13.3342Z" fill="white"/>
<path d="M14.1676 10.0006C13.9466 10.0006 13.7347 10.0882 13.5783 10.2442C13.4218 10.4002 13.3336 10.6118 13.3329 10.8328V29.1647C13.3267 29.278 13.3437 29.3914 13.3827 29.4979C13.4218 29.6044 13.4822 29.7018 13.5602 29.7842C13.6382 29.8666 13.7322 29.9323 13.8364 29.9771C13.9406 30.022 14.0528 30.0451 14.1663 30.0451C14.2798 30.0451 14.392 30.022 14.4962 29.9771C14.6005 29.9323 14.6944 29.8666 14.7724 29.7842C14.8504 29.7018 14.9108 29.6044 14.9499 29.4979C14.989 29.3914 15.0059 29.278 14.9997 29.1647V10.8328C14.9997 10.6121 14.912 10.4004 14.756 10.2444C14.5999 10.0883 14.3883 10.0006 14.1676 10.0006Z" fill="white"/>
<path d="M20.8322 1.66677C20.7223 1.6671 20.6137 1.6891 20.5124 1.7315C20.4111 1.77391 20.3191 1.83589 20.2418 1.91389C20.1645 1.99189 20.1034 2.08438 20.0619 2.18606C20.0204 2.28774 19.9994 2.39661 20 2.50642V37.4986C19.9938 37.6119 20.0108 37.7252 20.0498 37.8318C20.0889 37.9383 20.1493 38.0357 20.2273 38.1181C20.3053 38.2005 20.3993 38.2661 20.5035 38.311C20.6077 38.3558 20.72 38.379 20.8334 38.379C20.9469 38.379 21.0591 38.3558 21.1634 38.311C21.2676 38.2661 21.3615 38.2005 21.4395 38.1181C21.5175 38.0357 21.5779 37.9383 21.617 37.8318C21.6561 37.7252 21.673 37.6119 21.6668 37.4986V2.50642C21.6675 2.3964 21.6464 2.28732 21.6047 2.18548C21.5631 2.08364 21.5017 1.99104 21.4241 1.913C21.3466 1.83497 21.2543 1.77304 21.1527 1.73078C21.0511 1.68852 20.9422 1.66677 20.8322 1.66677Z" fill="white"/>
<path d="M27.4992 1.66677C27.3893 1.6671 27.2807 1.6891 27.1794 1.7315C27.0781 1.77391 26.9861 1.83589 26.9088 1.91389C26.8315 1.99189 26.7704 2.08438 26.7289 2.18606C26.6874 2.28774 26.6664 2.39661 26.667 2.50642V37.4986C26.6608 37.6119 26.6778 37.7252 26.7168 37.8318C26.7559 37.9383 26.8163 38.0357 26.8943 38.1181C26.9723 38.2005 27.0663 38.2661 27.1705 38.311C27.2747 38.3558 27.387 38.379 27.5004 38.379C27.6139 38.379 27.7261 38.3558 27.8303 38.311C27.9346 38.2661 28.0285 38.2005 28.1065 38.1181C28.1845 38.0357 28.2449 37.9383 28.284 37.8318C28.3231 37.7252 28.34 37.6119 28.3338 37.4986V2.50642C28.3345 2.3964 28.3134 2.28732 28.2717 2.18548C28.2301 2.08364 28.1687 1.99104 28.0911 1.913C28.0135 1.83497 27.9213 1.77304 27.8197 1.73078C27.7181 1.68852 27.6092 1.66677 27.4992 1.66677Z" fill="white"/>
<path d="M24.1657 0C23.945 0 23.7333 0.0876708 23.5773 0.243726C23.4212 0.399781 23.3335 0.611437 23.3335 0.832132V39.1654C23.3273 39.2786 23.3443 39.392 23.3833 39.4985C23.4224 39.605 23.4828 39.7025 23.5608 39.7849C23.6388 39.8673 23.7328 39.9329 23.837 39.9777C23.9412 40.0226 24.0535 40.0457 24.1669 40.0457C24.2804 40.0457 24.3926 40.0226 24.4969 39.9777C24.6011 39.9329 24.695 39.8673 24.773 39.7849C24.851 39.7025 24.9114 39.605 24.9505 39.4985C24.9896 39.392 25.0065 39.2786 25.0003 39.1654V0.832132C24.9996 0.611207 24.9114 0.399557 24.755 0.243573C24.5985 0.0875898 24.3866 -9.96154e-07 24.1657 0Z" fill="white"/>
<path d="M4.16695 0C3.94602 -9.96154e-07 3.73411 0.0875898 3.57765 0.243573C3.4212 0.399557 3.33297 0.611207 3.33231 0.832132V39.1654C3.32609 39.2786 3.34304 39.392 3.38211 39.4985C3.42119 39.605 3.48157 39.7025 3.55957 39.7849C3.63756 39.8673 3.73154 39.9329 3.83576 39.9777C3.93997 40.0226 4.05224 40.0457 4.16569 40.0457C4.27915 40.0457 4.39142 40.0226 4.49563 39.9777C4.59985 39.9329 4.69382 39.8673 4.77182 39.7849C4.84982 39.7025 4.9102 39.605 4.94927 39.4985C4.98835 39.392 5.00529 39.2786 4.99908 39.1654V0.832132C4.99908 0.611437 4.91141 0.399781 4.75535 0.243726C4.5993 0.0876708 4.38764 0 4.16695 0Z" fill="white"/>
</svg>
