<svg width="19" height="19" viewBox="0 0 19 19" fill="none" xmlns="http://www.w3.org/2000/svg">
<path d="M8.1676 15.2124H10.1676V13.305H8.1676V15.2124ZM9.1676 3.768C6.9676 3.768 5.1676 5.48467 5.1676 7.58282H7.1676C7.1676 6.53374 8.0676 5.67541 9.1676 5.67541C10.2676 5.67541 11.1676 6.53374 11.1676 7.58282C11.1676 9.49022 8.1676 9.29948 8.1676 12.3513H10.1676C10.1676 10.2532 13.1676 9.96708 13.1676 7.58282C13.1676 5.48467 11.3676 3.768 9.1676 3.768ZM16.1676 2.8143V16.1661H2.1676V2.8143H16.1676ZM16.1676 0.906891H2.1676C1.0676 0.906891 0.167603 1.76522 0.167603 2.8143V16.1661C0.167603 17.2152 1.0676 18.0736 2.1676 18.0736H16.1676C17.2676 18.0736 18.1676 17.2152 18.1676 16.1661V2.8143C18.1676 1.76522 17.2676 0.906891 16.1676 0.906891Z" fill="#F8F8F8"/>
</svg>
