<svg width="19" height="21" viewBox="0 0 19 21" fill="none" xmlns="http://www.w3.org/2000/svg">
<path d="M8.01529 0.547862C8.43636 0.19327 8.95979 5.34058e-05 9.49932 5.34058e-05C10.0388 5.34058e-05 10.5623 0.19327 10.9834 0.547862L18.1084 6.53971C18.6716 7.01336 19 7.73095 19 8.48992V18.5034C19 19.1656 18.7498 19.8006 18.3044 20.2688C17.859 20.737 17.2549 21.0001 16.625 21.0001H11.875C11.605 21.0001 11.3462 20.8873 11.1553 20.6867C10.9644 20.486 10.8571 20.2139 10.8571 19.9301V12.4403H8.14286V19.9301C8.14286 20.2139 8.03562 20.486 7.84473 20.6867C7.65385 20.8873 7.39495 21.0001 7.125 21.0001H2.375C1.74511 21.0001 1.14102 20.737 0.695621 20.2688C0.250222 19.8006 0 19.1656 0 18.5034V8.48849C0 7.73095 0.328429 7.01336 0.891643 6.53971L8.01529 0.547862ZM9.71171 2.21845C9.65159 2.16798 9.57694 2.14049 9.5 2.14049C9.42306 2.14049 9.34841 2.16798 9.28829 2.21845L2.16329 8.2103C2.12337 8.24381 2.09117 8.28636 2.06908 8.33477C2.04699 8.38319 2.03558 8.43622 2.03571 8.48992V18.5034C2.03571 18.7003 2.18771 18.8601 2.375 18.8601H6.10714V11.3703C6.10714 11.0865 6.21438 10.8144 6.40527 10.6137C6.59615 10.413 6.85505 10.3003 7.125 10.3003H11.875C12.145 10.3003 12.4038 10.413 12.5947 10.6137C12.7856 10.8144 12.8929 11.0865 12.8929 11.3703V18.8601H16.625C16.715 18.8601 16.8013 18.8225 16.8649 18.7556C16.9285 18.6888 16.9643 18.598 16.9643 18.5034V8.48849C16.9642 8.43504 16.9527 8.38228 16.9306 8.33413C16.9085 8.28598 16.8765 8.24366 16.8367 8.2103L9.71171 2.21845Z" fill="#F8F8F8"/>
</svg>
