<svg width="17" height="21" viewBox="0 0 17 21" fill="none" xmlns="http://www.w3.org/2000/svg">
<path d="M0.167603 10.0458C0.167603 10.311 0.27296 10.5653 0.460496 10.7529C0.648032 10.9404 0.902386 11.0458 1.1676 11.0458H8.7576L6.4576 13.3358C6.36387 13.4287 6.28948 13.5393 6.23871 13.6612C6.18794 13.7831 6.1618 13.9138 6.1618 14.0458C6.1618 14.1778 6.18794 14.3085 6.23871 14.4304C6.28948 14.5522 6.36387 14.6628 6.4576 14.7558C6.55057 14.8495 6.66117 14.9239 6.78303 14.9747C6.90488 15.0254 7.03559 15.0516 7.1676 15.0516C7.29961 15.0516 7.43032 15.0254 7.55218 14.9747C7.67404 14.9239 7.78464 14.8495 7.8776 14.7558L11.8776 10.7558C11.9686 10.6607 12.04 10.5485 12.0876 10.4258C12.1876 10.1823 12.1876 9.90924 12.0876 9.66578C12.04 9.54303 11.9686 9.43088 11.8776 9.33578L7.8776 5.33578C7.78436 5.24254 7.67367 5.16858 7.55185 5.11812C7.43003 5.06766 7.29946 5.04168 7.1676 5.04168C7.03574 5.04168 6.90517 5.06766 6.78335 5.11812C6.66153 5.16858 6.55084 5.24254 6.4576 5.33578C6.36436 5.42901 6.2904 5.53971 6.23994 5.66153C6.18948 5.78335 6.16351 5.91392 6.16351 6.04578C6.16351 6.17764 6.18948 6.3082 6.23994 6.43003C6.2904 6.55185 6.36436 6.66254 6.4576 6.75578L8.7576 9.04578H1.1676C0.902386 9.04578 0.648032 9.15113 0.460496 9.33867C0.27296 9.52621 0.167603 9.78056 0.167603 10.0458ZM13.1676 0.0457764H3.1676C2.37195 0.0457764 1.60889 0.361847 1.04628 0.924456C0.483673 1.48707 0.167603 2.25013 0.167603 3.04578V6.04578C0.167603 6.31099 0.27296 6.56535 0.460496 6.75288C0.648032 6.94042 0.902386 7.04578 1.1676 7.04578C1.43282 7.04578 1.68717 6.94042 1.87471 6.75288C2.06225 6.56535 2.1676 6.31099 2.1676 6.04578V3.04578C2.1676 2.78056 2.27296 2.52621 2.4605 2.33867C2.64803 2.15113 2.90239 2.04578 3.1676 2.04578H13.1676C13.4328 2.04578 13.6872 2.15113 13.8747 2.33867C14.0622 2.52621 14.1676 2.78056 14.1676 3.04578V17.0458C14.1676 17.311 14.0622 17.5653 13.8747 17.7529C13.6872 17.9404 13.4328 18.0458 13.1676 18.0458H3.1676C2.90239 18.0458 2.64803 17.9404 2.4605 17.7529C2.27296 17.5653 2.1676 17.311 2.1676 17.0458V14.0458C2.1676 13.7806 2.06225 13.5262 1.87471 13.3387C1.68717 13.1511 1.43282 13.0458 1.1676 13.0458C0.902386 13.0458 0.648032 13.1511 0.460496 13.3387C0.27296 13.5262 0.167603 13.7806 0.167603 14.0458V17.0458C0.167603 17.8414 0.483673 18.6045 1.04628 19.1671C1.60889 19.7297 2.37195 20.0458 3.1676 20.0458H13.1676C13.9633 20.0458 14.7263 19.7297 15.2889 19.1671C15.8515 18.6045 16.1676 17.8414 16.1676 17.0458V3.04578C16.1676 2.25013 15.8515 1.48707 15.2889 0.924456C14.7263 0.361847 13.9633 0.0457764 13.1676 0.0457764Z" fill="#F8F8F8"/>
</svg>
